<svg width="251" height="80" viewBox="0 0 251 80" fill="none" xmlns="http://www.w3.org/2000/svg">
<mask id="mask0_7601_80" style="mask-type:alpha" maskUnits="userSpaceOnUse" x="0" y="0" width="76" height="76">
<rect y="38.8635" width="17.7045" height="17.7045" fill="black"/>
<rect y="19" width="17.7045" height="17.7045" fill="black"/>
<rect y="58.2954" width="17.7045" height="17.7045" fill="black"/>
<rect x="58.2954" y="38.8635" width="17.7045" height="17.7045" fill="black"/>
<rect x="38.8636" y="58.2954" width="17.7045" height="17.7045" fill="white"/>
<rect x="58.2954" y="58.2954" width="17.7045" height="17.7045" fill="white"/>
<rect x="19.4318" y="58.2954" width="17.7045" height="17.7045" fill="white"/>
<rect x="19.2159" width="17.7045" height="17.7045" fill="black"/>
<rect width="17.7045" height="17.7045" fill="#FB7777"/>
<rect x="19.4318" y="38.8635" width="17.7045" height="17.7045" fill="white"/>
<rect x="38.8636" y="19" width="17.7045" height="17.7045" fill="#363C71"/>
<rect x="19.4318" y="19.4319" width="17.7045" height="17.7045" fill="white"/>
<rect x="58.2954" y="19.4319" width="17.7045" height="17.7045" fill="black"/>
<rect x="38.8636" width="17.7045" height="17.7045" fill="black"/>
<rect x="58.2954" width="17.7045" height="17.7045" fill="black"/>
</mask>
<g mask="url(#mask0_7601_80)">
<rect y="38.8635" width="17.7045" height="17.7045" rx="3" fill="black"/>
<rect y="19" width="17.7045" height="17.7045" rx="3" fill="black"/>
<rect y="58.2954" width="17.7045" height="17.7045" rx="3" fill="black"/>
<rect x="58.2954" y="38.8635" width="17.7045" height="17.7045" rx="3" fill="black"/>
<rect x="38.8636" y="58.2954" width="17.7045" height="17.7045" fill="white"/>
<rect x="58.2954" y="58.2954" width="17.7045" height="17.7045" rx="3" fill="white"/>
<rect x="19.4318" y="58.2954" width="17.7045" height="17.7045" fill="white"/>
<rect x="19.2159" width="17.7045" height="17.7045" rx="3" fill="black"/>
<rect width="17.7045" height="17.7045" rx="3" fill="#FB7777"/>
<rect x="19.4138" y="38.8723" width="17.7045" height="17.7045" rx="3" fill="white"/>
<rect x="38.8636" y="19" width="17.7045" height="17.7045" rx="3" fill="#8591FF"/>
<rect x="19.4318" y="19.4319" width="17.7045" height="17.7045" rx="3" fill="white"/>
<rect x="58.2954" y="19.4319" width="17.7045" height="17.7045" rx="3" fill="black"/>
<rect x="38.8636" width="17.7045" height="17.7045" rx="3" fill="black"/>
<rect x="58.2954" width="17.7045" height="17.7045" rx="3" fill="black"/>
<path d="M2.41553 73.8261V60.478H2.43342L9.21482 70.1044L8.48121 69.9613L15.2447 60.478H15.2805V73.8261H13.5628V64.4145L13.6701 65.2912L8.78539 72.1979H8.74961L3.79328 65.2912L4.09746 64.486V73.8261H2.41553Z" fill="white"/>
<path d="M66.2931 41.2432H68.0287V54.1797H66.2931V41.2432Z" fill="white"/>
<path d="M66.2573 10.9952L61.462 2.37085H63.5913L67.4383 9.51011L66.9015 9.54589L70.7127 2.37085H72.824L67.9929 10.9952V15.3074H66.2573V10.9952Z" fill="white"/>
<path d="M27.4208 21.7847H29.1564V34.7212H27.4208V21.7847Z" fill="black"/>
</g>
<path d="M96.938 76V64.1H101.783C103.052 64.1 104.163 64.355 105.115 64.865C106.078 65.3637 106.826 66.0607 107.359 66.956C107.892 67.8513 108.158 68.8827 108.158 70.05C108.158 71.2173 107.892 72.2487 107.359 73.144C106.826 74.0393 106.078 74.742 105.115 75.252C104.163 75.7507 103.052 76 101.783 76H96.938ZM98.196 74.912H101.715C102.769 74.912 103.681 74.708 104.452 74.3C105.234 73.8807 105.84 73.3083 106.271 72.583C106.702 71.8463 106.917 71.002 106.917 70.05C106.917 69.0867 106.702 68.2423 106.271 67.517C105.84 66.7917 105.234 66.225 104.452 65.817C103.681 65.3977 102.769 65.188 101.715 65.188H98.196V74.912ZM112.275 69.421H118.565V70.492H112.275V69.421ZM112.411 74.912H119.568V76H111.153V64.1H119.313V65.188H112.411V74.912ZM121.445 71.92V70.866H125.899V71.92H121.445ZM130.146 69.863H136.436V70.951H130.146V69.863ZM130.282 76H129.024V64.1H137.184V65.188H130.282V76ZM139.952 76V64.1H141.21V76H139.952ZM149.871 76V64.1H154.325C155.334 64.1 156.201 64.2643 156.926 64.593C157.651 64.9103 158.207 65.375 158.592 65.987C158.989 66.5877 159.187 67.3187 159.187 68.18C159.187 69.0187 158.989 69.744 158.592 70.356C158.207 70.9567 157.651 71.4213 156.926 71.75C156.201 72.0787 155.334 72.243 154.325 72.243H150.568L151.129 71.648V76H149.871ZM151.129 71.75L150.568 71.138H154.291C155.481 71.138 156.382 70.883 156.994 70.373C157.617 69.8517 157.929 69.1207 157.929 68.18C157.929 67.228 157.617 66.4913 156.994 65.97C156.382 65.4487 155.481 65.188 154.291 65.188H150.568L151.129 64.593V71.75ZM162.077 76V64.1H163.335V74.912H169.999V76H162.077ZM170.354 76L175.794 64.1H177.035L182.475 76H181.149L176.151 64.831H176.661L171.663 76H170.354ZM172.496 72.821L172.87 71.801H179.789L180.163 72.821H172.496ZM186.328 76V65.188H182.146V64.1H191.768V65.188H187.586V76H186.328ZM195.07 69.863H201.36V70.951H195.07V69.863ZM195.206 76H193.948V64.1H202.108V65.188H195.206V76ZM209.928 76.102C209.033 76.102 208.2 75.9547 207.429 75.66C206.67 75.354 206.007 74.929 205.44 74.385C204.885 73.8297 204.448 73.1893 204.131 72.464C203.825 71.7273 203.672 70.9227 203.672 70.05C203.672 69.1773 203.825 68.3783 204.131 67.653C204.448 66.9163 204.885 66.276 205.44 65.732C206.007 65.1767 206.67 64.7517 207.429 64.457C208.188 64.151 209.021 63.998 209.928 63.998C210.823 63.998 211.651 64.151 212.41 64.457C213.169 64.7517 213.827 65.171 214.382 65.715C214.949 66.259 215.385 66.8993 215.691 67.636C216.008 68.3727 216.167 69.1773 216.167 70.05C216.167 70.9227 216.008 71.7273 215.691 72.464C215.385 73.2007 214.949 73.841 214.382 74.385C213.827 74.929 213.169 75.354 212.41 75.66C211.651 75.9547 210.823 76.102 209.928 76.102ZM209.928 74.98C210.642 74.98 211.299 74.861 211.9 74.623C212.512 74.3737 213.039 74.028 213.481 73.586C213.934 73.1327 214.286 72.6113 214.535 72.022C214.784 71.4213 214.909 70.764 214.909 70.05C214.909 69.336 214.784 68.6843 214.535 68.095C214.286 67.4943 213.934 66.973 213.481 66.531C213.039 66.0777 212.512 65.732 211.9 65.494C211.299 65.2447 210.642 65.12 209.928 65.12C209.214 65.12 208.551 65.2447 207.939 65.494C207.327 65.732 206.794 66.0777 206.341 66.531C205.899 66.973 205.548 67.4943 205.287 68.095C205.038 68.6843 204.913 69.336 204.913 70.05C204.913 70.7527 205.038 71.4043 205.287 72.005C205.548 72.6057 205.899 73.1327 206.341 73.586C206.794 74.028 207.327 74.3737 207.939 74.623C208.551 74.861 209.214 74.98 209.928 74.98ZM219.157 76V64.1H223.611C224.619 64.1 225.486 64.2643 226.212 64.593C226.937 64.9103 227.492 65.375 227.878 65.987C228.274 66.5877 228.473 67.3187 228.473 68.18C228.473 69.0187 228.274 69.744 227.878 70.356C227.492 70.9567 226.937 71.4213 226.212 71.75C225.486 72.0673 224.619 72.226 223.611 72.226H219.854L220.415 71.648V76H219.157ZM227.283 76L224.223 71.682H225.583L228.66 76H227.283ZM220.415 71.75L219.854 71.155H223.577C224.767 71.155 225.668 70.8943 226.28 70.373C226.903 69.8517 227.215 69.1207 227.215 68.18C227.215 67.228 226.903 66.4913 226.28 65.97C225.668 65.4487 224.767 65.188 223.577 65.188H219.854L220.415 64.593V71.75ZM231.612 76V64.1H232.649L238.089 73.382H237.545L242.934 64.1H243.971V76H242.764V65.987H243.053L238.089 74.487H237.494L232.496 65.987H232.819V76H231.612Z" fill="white"/>
<path d="M95.81 57V8H105.19L126.05 42.58H121.08L141.59 8H150.9L151.04 57H140.4L140.33 24.31H142.29L125.91 51.82H120.8L104.07 24.31H106.45V57H95.81ZM197.814 57V36.98L200.404 43.84L178.844 8H190.884L207.404 35.51H200.474L217.064 8H228.194L206.634 43.84L209.154 36.98V57H197.814Z" fill="white"/>
<path d="M162.665 57V8H174.005V57H162.665Z" fill="#FB7777"/>
<path d="M232.939 57V8H244.279V57H232.939Z" fill="#8591FF"/>
</svg>
